# xmcd
#
# Track frame offsets:
# 150
# 22670
# 46706
# 66911
# 83785
# 101566
# 132988
# 157263
# 173114
# 191090
# 209811
# 227022
# 250172
# 272910
# 295631
#
# Disc length: 4325 seconds
#
#
# Revision: 0
# Processed by: cddbd v1.5.2PL0 Copyright (c) Steve Scherf et al.
# Submitted via: Nero 7, 11, 10, 0 
#
DISCID=d410e30f
DTITLE=South Side Slim - Trouble On The South Side
DYEAR=2004
DGENRE=Blues
TTITLE0=Blue Rain
TTITLE1=V-8 Ford
TTITLE2=Funky Chicken
TTITLE3=Last Man Standing
TTITLE4=Sunset And Vine
TTITLE5=Hell Hounds On My Trail
TTITLE6=Guilty Mind
TTITLE7=Feelin' Pain
TTITLE8=The Jam
TTITLE9=Fire And Ice (The Smoking Gun)
TTITLE10=Interview with Slim
TTITLE11=Reminisin'
TTITLE12=Ride With Me
TTITLE13=Ride With Me (Instrumental)
TTITLE14=Trouble On The South Side
EXTD=
EXTT0=Blue Rain
EXTT1=V-8 Ford
EXTT2=Funky Chicken
EXTT3=Last Man Standing
EXTT4=Sunset And Vine
EXTT5=Hell Hounds On My Trail
EXTT6=Guilty Mind
EXTT7=Feelin' Pain
EXTT8=The Jam
EXTT9=Fire And Ice (The Smoking Gun)
EXTT10=Interview with Slim
EXTT11=Reminisin'
EXTT12=Ride With Me
EXTT13=Ride With Me (Instrumental)
EXTT14=Trouble On The South Side
PLAYORDER=
